<?xml version="1.0" encoding="UTF-8"?>
<svg id="_레이어_2" data-name="레이어 2" xmlns="http://www.w3.org/2000/svg" viewBox="0 0 496.67 496.67">
  <defs>
    <style>
      .cls-1 {
        fill: #fff;
      }

      .cls-2 {
        fill: #262626;
      }
    </style>
  </defs>
  <g id="_레이어_1-2" data-name="레이어 1">
    <g>
      <path class="cls-1" d="M496.67,140.57c0-46.11-11.88-81.65-34.81-105.76C437.75,11.88,402.21,0,356.1,0c-92.99,0-122.54,0-215.53,0C94.47,0,58.93,11.88,34.81,34.81,11.88,58.93,0,94.47,0,140.57c0,92.99,0,122.54,0,215.53,0,46.11,11.88,81.65,34.81,105.76,24.12,22.93,59.66,34.81,105.76,34.81,92.99,0,122.54,0,215.53,0,46.11,0,81.65-11.88,105.76-34.81,22.93-24.12,34.81-59.66,34.81-105.76,0-92.99,0-122.54,0-215.53Z"/>
      <path class="cls-2" d="M396.36,177.36l-111.23-77.69-.62-77.6-132.89,117.26v83.56l-47.78,22.39c-5.34-6.22-13.25-10.17-22.09-10.17-16.07,0-29.1,13.03-29.1,29.1s12.45,28.5,28.02,29.07l24.82,104.56c-8.98,4.95-15.06,14.51-15.06,25.49,0,16.07,13.03,29.1,29.1,29.1,12.06,0,22.41-7.34,26.82-17.79l115.55,14.96c1.99,14.13,14.13,25,28.81,25,12.06,0,22.41-7.34,26.82-17.8h78.82V177.36ZM167.16,146.34l102.08-90.08,1.32,166.14-20.72-14.43c1.06-3.02,1.65-6.27,1.65-9.66,0-16.07-13.03-29.1-29.1-29.1s-29.1,13.03-29.1,29.1c0,1.66.15,3.28.41,4.86l-26.55,12.44v-69.27ZM182.33,334.27c-.71,2.51-1.09,5.16-1.09,7.89,0,4.63,1.09,9.01,3.01,12.9l-17.09,15.28v-45.27l15.17,9.2ZM101.7,285.39l21.33,12.93,28.59,17.33v68.58l-16.37,14.63c-4.25-2.74-9.26-4.4-14.64-4.59l-24.82-104.56c2.15-1.19,4.14-2.64,5.91-4.32ZM145.61,410.44l6.01-5.37v14.59l-3.29-.43c-.44-3.12-1.37-6.07-2.72-8.79ZM167.16,391.18l16.34-14.61,11.11-9.93c4.54,2.92,9.93,4.62,15.73,4.62,16.07,0,29.1-13.03,29.1-29.1,0-1.35-.1-2.67-.28-3.96l32.21-13.89.79,98.76c-3.58,2.97-6.44,6.77-8.28,11.12l-96.73-12.53v-30.49ZM290.71,416.4c-1.03,0-2.05.06-3.06.16l-.79-98.92,35.82-15.44c1.81,2.24,3.94,4.22,6.33,5.84l-36.68,108.41c-.54-.03-1.08-.05-1.63-.05ZM316.53,287.93l-29.8,12.85-.39-48.45,31.56,21.99c-1.06,3.02-1.65,6.27-1.65,9.66,0,1.35.1,2.67.28,3.96ZM271.25,307.45l-38.23,16.48c-5.33-6.62-13.51-10.87-22.67-10.87-7.72,0-14.74,3.01-19.95,7.92l-23.23-14.09v-74.13l33.14-15.53c5.34,6.22,13.25,10.17,22.09,10.17,7.06,0,13.53-2.52,18.57-6.7l29.75,20.73.53,66.01ZM151.62,240.05v57.43l-41.86-25.38c.71-2.51,1.09-5.16,1.09-7.89,0-1.66-.15-3.28-.41-4.86l41.18-19.3ZM380.82,441.26h-61.32c-1.2-8.24-5.85-15.35-12.44-19.84l36.68-108.41c.54.03,1.08.05,1.63.05,16.07,0,29.1-13.03,29.1-29.1s-13.03-29.1-29.1-29.1c-7.06,0-13.53,2.52-18.57,6.7l-40.59-28.28-.91-114.56,95.54,66.73v255.8Z"/>
    </g>
  </g>
</svg>