<?xml version="1.0" encoding="UTF-8"?>
<svg id="_레이어_2" data-name="레이어 2" xmlns="http://www.w3.org/2000/svg" viewBox="0 0 962.36 495.13">
  <g id="_레이어_1-2" data-name="레이어 1">
    <g>
      <path d="M376.05,169.91l-121.7-85.01-.68-84.91L108.28,128.3v91.43l-52.27,24.49c-5.84-6.81-14.5-11.13-24.17-11.13-17.58,0-31.84,14.25-31.84,31.84s13.62,31.18,30.65,31.81l27.16,114.4c-9.82,5.42-16.48,15.88-16.48,27.89,0,17.58,14.25,31.84,31.84,31.84,13.2,0,24.52-8.03,29.35-19.47l126.43,16.37c2.18,15.46,15.46,27.35,31.52,27.35,13.2,0,24.52-8.03,29.35-19.48h86.24V169.91ZM125.28,135.97l111.69-98.56,1.45,181.78-22.67-15.79c1.16-3.31,1.8-6.86,1.8-10.56,0-17.58-14.25-31.84-31.84-31.84s-31.84,14.25-31.84,31.84c0,1.81.16,3.59.45,5.32l-29.05,13.61v-75.79ZM141.88,341.59c-.77,2.75-1.2,5.64-1.2,8.64,0,5.07,1.19,9.86,3.3,14.11l-18.7,16.72v-49.53l16.6,10.06ZM53.66,288.1l23.34,14.15,31.28,18.97v75.03l-17.91,16.01c-4.65-3-10.13-4.81-16.02-5.03l-27.16-114.4c2.35-1.3,4.52-2.89,6.47-4.72ZM101.71,424.93l6.58-5.88v15.96l-3.6-.47c-.48-3.41-1.5-6.65-2.98-9.62ZM125.28,403.85l17.88-15.98,12.16-10.87c4.96,3.2,10.87,5.06,17.21,5.06,17.58,0,31.84-14.25,31.84-31.84,0-1.47-.11-2.92-.3-4.34l35.25-15.19.86,108.06c-3.92,3.24-7.05,7.41-9.06,12.17l-105.83-13.7v-33.36ZM260.46,431.45c-1.13,0-2.24.06-3.34.18l-.86-108.23,39.19-16.89c1.98,2.46,4.31,4.61,6.92,6.39l-40.13,118.61c-.59-.03-1.18-.05-1.78-.05ZM288.71,290.89l-32.61,14.06-.42-53.01,34.53,24.05c-1.16,3.31-1.8,6.86-1.8,10.56,0,1.47.11,2.92.3,4.34ZM239.16,312.25l-41.83,18.03c-5.84-7.25-14.78-11.89-24.81-11.89-8.45,0-16.12,3.3-21.82,8.67l-25.42-15.41v-81.11l36.26-16.99c5.84,6.81,14.5,11.13,24.17,11.13,7.72,0,14.8-2.75,20.32-7.33l32.55,22.68.58,72.23ZM108.28,238.5v62.84l-45.8-27.77c.77-2.75,1.2-5.64,1.2-8.64,0-1.81-.16-3.59-.45-5.32l45.06-21.11ZM359.05,458.65h-67.09c-1.32-9.01-6.4-16.8-13.61-21.7l40.13-118.61c.59.03,1.18.05,1.78.05,17.58,0,31.84-14.25,31.84-31.84s-14.25-31.84-31.84-31.84c-7.72,0-14.8,2.75-20.32,7.33l-44.42-30.94-1-125.34,104.53,73.02v279.88Z"/>
      <g>
        <path d="M454.59,201.74l-4.65,22.45h-13.22l19.16-86.14h15.93l17.81,86.14h-13.33l-4.57-22.45h-17.12ZM470.29,191.04l-3.61-19.77c-1.02-5.63-2.17-13.58-3.11-19.61h-.37c-.95,6.08-2.23,14.29-3.27,19.67l-3.77,19.72h14.12Z"/>
        <path d="M513.39,138.04v86.14h-13.64v-86.14h13.64Z"/>
        <path d="M550.12,224.19v-52.33h-8.14v-9.89h8.14v-3.07c0-6.9,1.28-13.55,6.02-18.61,3.65-3.93,8.82-5.57,13.79-5.57,3.9,0,6.89.64,9.01,1.46l-1.75,10.66c-1.3-.51-3.03-.93-5.28-.93-6.23,0-8.15,6.09-8.15,12.7v3.36h11.05v9.89h-11.05v52.33h-13.64Z"/>
        <path d="M622.21,192.93c0,25.09-12.93,32.28-22.39,32.28-13.2,0-22.2-11.04-22.2-31.99,0-22.48,11.04-32.28,22.66-32.28,13.05,0,21.93,11.47,21.93,31.99ZM591.22,193c0,10.48,1.77,21.67,9.03,21.67,6.79,0,8.34-12.29,8.34-21.67s-1.55-21.53-8.6-21.53-8.78,12.51-8.78,21.53Z"/>
        <path d="M632.38,179.5c0-5.76-.31-12.24-.51-17.53h11.93l.69,9.39h.4c2.41-6.31,7.56-10.41,12.64-10.41,1.33,0,2.08.07,2.9.22v13.64c-.84-.15-1.73-.15-2.91-.15-4.72,0-9.47,3.94-10.93,10.68-.35,1.5-.56,3.6-.56,5.97v32.88h-13.64v-44.69Z"/>
        <path d="M482.05,342.64c-2.52,1.24-7.05,2.14-12.67,2.14-19.66,0-30.88-16.04-30.88-42.65,0-33.15,17.49-45.02,32.81-45.02,5.6,0,9.54,1.11,11.26,2.19l-2.52,11.55c-2.03-.95-4.14-1.77-8.18-1.77-9.38,0-18.96,8.58-18.96,32.11s8.68,31.49,19.04,31.49c3.2,0,6.45-.73,8.5-1.52l1.61,11.49Z"/>
        <path d="M531.21,312.76c0,25.09-12.93,32.28-22.39,32.28-13.2,0-22.2-11.04-22.2-31.99,0-22.48,11.04-32.28,22.66-32.28,13.05,0,21.93,11.47,21.93,31.99ZM500.22,312.83c0,10.48,1.77,21.67,9.03,21.67,6.79,0,8.34-12.29,8.34-21.67s-1.55-21.53-8.6-21.53-8.78,12.51-8.78,21.53Z"/>
        <path d="M541.43,299.32c0-7.03-.31-12.02-.51-17.53h11.82l.69,7.32h.25c2.96-4.98,8.19-8.34,14.71-8.34,10.37,0,15.89,8.05,15.89,22.48v40.76h-13.64v-39.46c0-6.22-1.32-12.29-7.26-12.29-3.38,0-6.42,2.6-7.63,7.62-.4,1.37-.69,3.38-.69,5.66v38.47h-13.64v-44.69Z"/>
        <path d="M595.85,331.13c2.34,1.48,6.6,3.27,10.73,3.27,4.86,0,7.84-2.6,7.84-7.12,0-3.9-1.81-6.46-7.58-10.1-9.25-5.51-12.62-11.5-12.62-17.82,0-10.71,7.81-18.59,19.03-18.59,5.04,0,8.94,1.43,11.93,3.03l-2.79,10.07c-2.37-1.5-5.17-2.65-8.51-2.65-4.72,0-7.04,3.13-7.04,6.48s1.52,5.32,7.49,9.12c8.28,4.94,12.69,11.08,12.69,18.84,0,12.65-8.85,19.11-20.56,19.11-4.89,0-10.54-1.41-13.32-3.58l2.7-10.07Z"/>
        <path d="M652.57,265.12v16.67h12.07v9.89h-12.07v32.26c0,7.62,2.96,9.55,6.37,9.55,1.61,0,2.88-.13,4.21-.38l.28,10.62c-2.06.64-5.05,1.04-8.91,1.04-4.41,0-8.3-1.09-11.02-3.87-3.01-3.07-4.58-7.57-4.58-16.82v-32.4h-7.45v-9.89h7.45v-13.19l13.64-3.48Z"/>
        <path d="M672.77,299.32c0-5.76-.31-12.24-.51-17.53h11.93l.69,9.39h.4c2.41-6.31,7.56-10.41,12.64-10.41,1.33,0,2.08.07,2.9.22v13.64c-.84-.15-1.73-.15-2.91-.15-4.72,0-9.47,3.94-10.93,10.68-.35,1.5-.56,3.6-.56,5.97v32.88h-13.64v-44.69Z"/>
        <path d="M749.34,325.93c0,6.76.31,12.79.51,18.08h-11.82l-.8-6.54h-.26c-2.44,3.68-7.35,7.56-13.91,7.56-11.41,0-15.95-8.62-15.95-24.8v-38.44h13.64v36.78c0,8.86,1.61,15.04,7.19,15.04,4.18,0,6.32-3.63,6.99-6.08.47-1.41.77-3.34.77-5.41v-40.34h13.64v44.14Z"/>
        <path d="M794.82,342.73c-1.92,1.02-5.88,2.05-10.48,2.05-14.78,0-24.59-10.94-24.59-31.39,0-18.63,10.3-32.48,26.8-32.48,3.67,0,7.25.89,8.94,1.81l-2.08,10.82c-1.35-.55-3.6-1.39-6.6-1.39-8.88,0-13.46,9.51-13.46,20.97,0,12.72,5.13,20.47,13.46,20.47,2.52,0,4.66-.49,6.65-1.48l1.35,10.62Z"/>
        <path d="M820.64,265.12v16.67h12.07v9.89h-12.07v32.26c0,7.62,2.96,9.55,6.37,9.55,1.61,0,2.88-.13,4.22-.38l.28,10.62c-2.06.64-5.05,1.04-8.91,1.04-4.41,0-8.3-1.09-11.02-3.87-3.01-3.07-4.58-7.57-4.58-16.82v-32.4h-7.45v-9.89h7.45v-13.19l13.64-3.48Z"/>
        <path d="M854.92,265.49c.07,4.68-3.08,7.86-7.54,7.86-3.97,0-7.16-3.17-7.09-7.86-.07-4.85,3.26-7.93,7.29-7.93,4.27,0,7.34,3.08,7.34,7.93ZM840.89,344.01v-62.22h13.64v62.22h-13.64Z"/>
        <path d="M909.27,312.76c0,25.09-12.93,32.28-22.39,32.28-13.2,0-22.2-11.04-22.2-31.99,0-22.48,11.04-32.28,22.66-32.28,13.05,0,21.93,11.47,21.93,31.99ZM878.28,312.83c0,10.48,1.77,21.67,9.03,21.67,6.79,0,8.34-12.29,8.34-21.67s-1.55-21.53-8.6-21.53-8.78,12.51-8.78,21.53Z"/>
        <path d="M919.49,299.32c0-7.03-.31-12.02-.51-17.53h11.82l.69,7.32h.26c2.96-4.98,8.19-8.34,14.71-8.34,10.37,0,15.9,8.05,15.9,22.48v40.76h-13.64v-39.46c0-6.22-1.32-12.29-7.26-12.29-3.38,0-6.42,2.6-7.63,7.62-.4,1.37-.69,3.38-.69,5.66v38.47h-13.64v-44.69Z"/>
        <path d="M442.48,377.69h13.64v74.58h23.02v11.57h-36.66v-86.14Z"/>
        <path d="M501.88,441.39l-4.65,22.45h-13.22l19.16-86.14h15.93l17.81,86.14h-13.33l-4.57-22.45h-17.12ZM517.58,430.69l-3.61-19.77c-1.02-5.63-2.17-13.58-3.11-19.61h-.37c-.95,6.08-2.23,14.29-3.27,19.67l-3.77,19.72h14.12Z"/>
        <path d="M547.03,378.97c4.61-1.09,10.5-1.66,16.96-1.66,7.89,0,15.22,1.32,20.53,6.02,4.21,3.7,6.13,9.22,6.13,15.28,0,8.15-4.35,15.36-12.8,18.94v.4c9.97,2.77,15.56,10.92,15.56,21.2,0,7.1-2.3,12.76-6.22,16.98-5.02,5.57-13.43,8.3-25.83,8.3-6.33,0-11.02-.38-14.32-.91v-84.55ZM560.6,413.63h4.02c6.95,0,12.56-5.59,12.56-13.49,0-7.05-3.29-12.5-11.78-12.5-2.05,0-3.67.18-4.81.57v25.43ZM560.6,453.45c1.13.26,2.54.37,4.3.37,8.34,0,14.39-4.99,14.39-14.81s-6.95-15.1-14.76-15.16h-3.93v29.6Z"/>
      </g>
    </g>
  </g>
</svg>